<svg width="243" height="64" viewBox="0 0 243 64" fill="none" xmlns="http://www.w3.org/2000/svg">
<g clip-path="url(#clip0_1_295)">
<path d="M17.0425 36.803H0.0287476C0.0287476 36.8887 0.0287476 36.9673 0.0359446 37.053C0.0359446 37.2101 0.0575356 37.3672 0.0647326 37.5315C0.0647326 37.6029 0.0719296 37.6672 0.0791267 37.7386C0.0935207 37.9243 0.107915 38.1029 0.122309 38.2886C0.122309 38.3314 0.129506 38.3743 0.136703 38.41C0.158294 38.6171 0.179885 38.8171 0.201476 39.017C0.201476 39.0385 0.201476 39.0599 0.201476 39.0742C0.230264 39.2956 0.259052 39.5099 0.28784 39.7313C0.28784 39.7313 0.28784 39.7313 0.28784 39.7384C0.482159 41.0811 0.777237 42.4167 1.16588 43.7308V43.7451C1.23065 43.9522 1.28823 44.1593 1.3602 44.3593C1.3602 44.3736 1.36739 44.3807 1.37459 44.395C1.38179 44.4093 1.38179 44.4164 1.38898 44.4307C1.44656 44.6164 1.51133 44.8021 1.57611 44.9807C1.5905 45.0235 1.61209 45.0735 1.62648 45.1235C1.68406 45.2806 1.74164 45.4449 1.79921 45.602C1.828 45.6734 1.85679 45.7449 1.87838 45.8163C1.92876 45.9448 1.97914 46.0805 2.03671 46.2091C2.0799 46.3091 2.11588 46.4091 2.15906 46.5091C2.20225 46.6091 2.24543 46.7162 2.28861 46.8162C2.34619 46.9447 2.39657 47.0662 2.45414 47.1947C2.49013 47.2661 2.51891 47.3447 2.5549 47.4161C2.62687 47.5661 2.69164 47.7161 2.76361 47.8661C2.7852 47.9161 2.8068 47.9589 2.83558 48.0089C2.92195 48.1803 3.00111 48.3517 3.08748 48.5231C3.10187 48.5517 3.11627 48.5731 3.13066 48.6017C3.23142 48.7874 3.32498 48.9731 3.42574 49.1588C3.42574 49.1659 3.43294 49.1731 3.44013 49.1802C3.46172 49.2159 3.48331 49.2588 3.50491 49.2945L18.0357 40.6026L18.0861 40.5669C17.5103 39.367 17.1504 38.0886 17.0209 36.7959L17.0425 36.803Z" fill="#93D500"/>
<path d="M0.827637 44.545L0.834834 44.5593L1.38181 44.3879L0.827637 44.545Z" fill="#93D500"/>
<path d="M21.224 44.5522L21.1808 44.595L9.19055 56.4937C9.25532 56.5508 9.3129 56.6079 9.37767 56.6651C9.48563 56.7651 9.60078 56.8651 9.71593 56.9651C9.77351 57.015 9.83109 57.0722 9.88866 57.115C10.0254 57.2293 10.1621 57.3436 10.2989 57.4579C10.3349 57.4864 10.3709 57.5221 10.4068 57.5507C10.558 57.6793 10.7163 57.8007 10.8747 57.9221C10.8962 57.9364 10.9178 57.9507 10.9322 57.9721C11.105 58.1078 11.2705 58.2363 11.4432 58.3649C11.4504 58.3649 11.4576 58.372 11.4648 58.3792C12.1845 58.9148 12.933 59.4148 13.7103 59.8862C13.7391 59.9004 13.7607 59.9147 13.7894 59.9361C13.9334 60.0219 14.0845 60.1076 14.2285 60.1933C14.322 60.2433 14.4084 60.2933 14.5019 60.3432C14.5883 60.3932 14.6747 60.4361 14.761 60.4861C14.9194 60.5718 15.0705 60.6575 15.2288 60.7361C15.2504 60.7503 15.272 60.7575 15.2936 60.7718C15.7326 61.0003 16.1717 61.2074 16.6179 61.4074L17.0425 60.3861L23.0736 45.8592L23.0952 45.802C22.4403 45.4521 21.8069 45.0378 21.2168 44.5593L21.224 44.5522Z" fill="#4D5A31"/>
<path d="M19.9789 43.3666C19.8494 43.2237 19.727 43.0737 19.6047 42.9309C19.4967 42.8023 19.396 42.6666 19.2952 42.5309C19.18 42.3738 19.0649 42.2238 18.9641 42.0667C18.8562 41.9096 18.7554 41.7453 18.6547 41.5882L4.10229 50.2872C4.3254 50.6586 4.55571 51.0157 4.79321 51.3657C4.80041 51.38 4.8076 51.3942 4.8148 51.4014C4.8148 51.4014 4.8148 51.4085 4.822 51.4157C4.82919 51.43 4.83639 51.4371 4.84359 51.4514C4.86518 51.4799 4.87957 51.5085 4.90116 51.5371C5.15306 51.9085 5.41215 52.2727 5.67844 52.6298C5.67844 52.637 5.69284 52.6441 5.69284 52.6512C5.69284 52.6584 5.70723 52.6655 5.70723 52.6727C5.82238 52.8227 5.93753 52.9798 6.05988 53.1298C6.07428 53.1512 6.08867 53.1726 6.11026 53.1869C6.23261 53.344 6.36216 53.5012 6.48451 53.6511C6.5133 53.6868 6.54208 53.7226 6.57807 53.7583C6.69322 53.894 6.80837 54.0297 6.92352 54.1654C6.9739 54.2225 7.02428 54.2796 7.07466 54.3368C7.17542 54.451 7.27618 54.5653 7.37694 54.6725C7.43451 54.7367 7.49209 54.7939 7.54966 54.8581C7.57845 54.8867 7.60004 54.9153 7.62883 54.9438C7.7008 55.0224 7.77997 55.101 7.85194 55.1867C7.88073 55.2152 7.91671 55.251 7.9455 55.2795C8.07505 55.4152 8.21179 55.5509 8.34853 55.6866L20.3532 43.7737C20.2164 43.638 20.0869 43.4951 19.9573 43.3594L19.9789 43.3666Z" fill="#6BA43A"/>
<path d="M35.8915 44.545C35.7619 44.6521 35.6252 44.7521 35.4885 44.8521L35.5173 44.9021L44.2688 59.3219C44.6719 59.0577 45.0749 58.7863 45.4635 58.5006C46.3128 57.8792 47.1332 57.2079 47.9177 56.4865L35.9275 44.5879L35.8771 44.5379L35.8915 44.545Z" fill="#4D5A31"/>
<path d="M43.1677 60.0076C43.1677 60.0076 43.1821 60.0004 43.1893 59.9933C43.1893 59.9933 43.1749 59.9933 43.1677 60.0004V60.0076Z" fill="#93D500"/>
<path d="M43.1821 60.0004C43.2181 59.979 43.2612 59.9576 43.2972 59.9362C43.2612 59.9576 43.2252 59.979 43.1821 60.0004Z" fill="#93D500"/>
<path d="M43.1605 60.0154L43.1682 60.0076L43.1605 60.0154Z" fill="#93D500"/>
<path d="M43.1532 60.0147L43.1317 59.979L43.1532 60.0147Z" fill="#93D500"/>
<path d="M43.1677 60.0076C43.1677 60.0076 43.1821 60.0076 43.1893 60.0004C43.1893 60.0004 43.1749 60.0004 43.1677 60.0076Z" fill="#93D500"/>
<path d="M43.1461 60.0225L43.1538 60.0147L43.1461 60.0225Z" fill="#93D500"/>
<path d="M43.1608 60.015H43.1533L43.1683 60.0076L43.1608 60.015Z" fill="#93D500"/>
<path d="M43.0021 59.4433L42.7071 58.9577L34.5385 45.502C34.3729 45.602 34.2074 45.6877 34.0347 45.7806C33.8619 45.8734 33.6892 45.9591 33.5165 46.0377C31.9475 46.7733 30.249 47.1519 28.5433 47.1519C27.4278 47.1519 26.3123 46.9947 25.2399 46.6733C25.0528 46.6162 24.8801 46.5448 24.6929 46.4805C24.513 46.4162 24.3259 46.3591 24.146 46.2877L18.1221 60.8075L17.8846 61.3788L17.683 61.8645C17.683 61.8645 17.7118 61.8788 17.7334 61.8859C17.7478 61.8859 17.7694 61.9002 17.7838 61.9074C17.7838 61.9074 17.791 61.9074 17.7982 61.9074C17.9421 61.9645 18.0861 62.0145 18.23 62.0716C18.4099 62.143 18.5899 62.2073 18.7698 62.2787C18.8634 62.3145 18.9497 62.3502 19.0433 62.3859C20.9289 63.0501 22.8865 63.5072 24.8729 63.7714C24.952 63.7786 25.024 63.7929 25.1032 63.8C25.1823 63.8071 25.2687 63.8143 25.3479 63.8286C25.499 63.8429 25.6501 63.8643 25.8085 63.8786C25.8445 63.8786 25.8876 63.8786 25.9236 63.8857C26.1107 63.9 26.2979 63.9214 26.485 63.9357C26.5498 63.9357 26.6145 63.9428 26.6793 63.95C26.8448 63.9643 27.0104 63.9714 27.1759 63.9786C27.2767 63.9786 27.3774 63.9857 27.4782 63.9928C27.6077 63.9928 27.7373 64 27.874 64.0071C28.0611 64.0071 28.2555 64.0071 28.4426 64.0071C28.4858 64.0071 28.5289 64.0071 28.5793 64.0071C30.1627 64.0071 31.7532 63.8786 33.3222 63.6143C33.3222 63.6143 33.3725 63.6072 33.4013 63.6C33.5669 63.5715 33.7324 63.5429 33.8979 63.5072C33.9915 63.4858 34.085 63.4715 34.1786 63.45C34.2722 63.4286 34.3729 63.4072 34.4665 63.3929C34.6248 63.3572 34.7903 63.3215 34.9487 63.2858C34.9775 63.2858 35.0063 63.2715 35.035 63.2643C37.4173 62.7144 39.7203 61.8574 41.8866 60.7289C42.0305 60.6575 42.1673 60.5718 42.304 60.4932C42.4696 60.4004 42.6423 60.3075 42.8078 60.2147C42.923 60.1504 43.0381 60.0861 43.1533 60.0219C43.1533 60.0219 43.1677 60.0147 43.1749 60.0076C43.2109 59.9861 43.2468 59.9647 43.29 59.9433L42.9949 59.4505L43.0021 59.4433Z" fill="#93D500"/>
<path d="M21.2312 26.7684C21.3607 26.6613 21.4974 26.5613 21.6342 26.4613L21.6054 26.4113L12.8538 11.9915C12.4508 12.2557 12.0478 12.5271 11.6519 12.8128C10.8027 13.4342 9.98943 14.1055 9.19775 14.8269L21.188 26.7256L21.2384 26.7755L21.2312 26.7684Z" fill="#93D500"/>
<path d="M8.36287 15.6197C8.22613 15.7554 8.09658 15.8982 7.96704 16.0339C7.83749 16.1696 7.70075 16.3053 7.5712 16.4481C6.68597 17.398 5.87271 18.3979 5.14581 19.4335C5.10982 19.4835 5.07384 19.5335 5.03785 19.5835C4.95869 19.7049 4.87232 19.8192 4.79316 19.9406C4.70679 20.062 4.62762 20.1906 4.54846 20.3191C4.51967 20.362 4.49088 20.412 4.46209 20.4548C1.69844 24.7401 0.223052 29.6038 0.0287322 34.5176C0.0215351 34.7104 0.0143381 34.8961 0.0143381 35.0889C0.0143381 35.2818 0.00714111 35.4674 0.00714111 35.6603H16.9849C16.9849 35.4674 17.0065 35.2818 17.0137 35.0889C17.0209 34.8961 17.0281 34.7104 17.0425 34.5176C17.2656 32.3249 18.1148 30.1823 19.6046 28.3825C19.727 28.2397 19.8637 28.0968 19.9932 27.9611C20.1228 27.8183 20.2451 27.6755 20.3819 27.5398L8.36287 15.6197Z" fill="#4D5A31"/>
<path d="M43.3979 11.4344C43.3979 11.4344 43.3476 11.4058 43.326 11.3916C43.1748 11.2987 43.0237 11.213 42.8726 11.1273C42.7862 11.0773 42.6998 11.0273 42.6063 10.9773C42.5199 10.9273 42.4264 10.8773 42.34 10.8273C42.1889 10.7416 42.0305 10.6631 41.8794 10.5774C41.8578 10.5631 41.829 10.5488 41.8074 10.5417C40.8142 10.0274 39.7922 9.57033 38.7487 9.17752C38.7199 9.16324 38.6911 9.15609 38.6695 9.14895C38.4392 9.06325 38.2161 8.97754 37.9858 8.89898C36.129 8.25619 34.2146 7.80624 32.2642 7.54913C32.185 7.53485 32.1058 7.5277 32.0267 7.52056C31.9475 7.51342 31.8683 7.50628 31.7892 7.49199C31.638 7.47771 31.4797 7.45628 31.3286 7.442C31.2854 7.442 31.2422 7.442 31.199 7.42772C31.0191 7.41343 30.832 7.39201 30.652 7.38486C30.5801 7.38486 30.5081 7.37772 30.4361 7.37058C30.2778 7.36344 30.1195 7.34915 29.9611 7.34201C29.8748 7.34201 29.7956 7.34201 29.7092 7.33487V24.1616V24.2258C30.5801 24.3187 31.4509 24.4972 32.2858 24.7829L44.8086 12.3557C44.3408 12.0343 43.873 11.7272 43.3908 11.4344H43.3979Z" fill="#4D5A31"/>
<path d="M27.982 7.32773C27.7876 7.32773 27.6005 7.32773 27.4062 7.34201C26.2043 7.39201 25.0096 7.51342 23.8149 7.70626C23.7861 7.70626 23.7645 7.7134 23.7357 7.72054C23.5702 7.74911 23.4047 7.77768 23.2391 7.81339C23.1456 7.82767 23.052 7.8491 22.9584 7.87053C22.8577 7.89195 22.7641 7.91338 22.6634 7.93481C22.505 7.97052 22.3395 8.00623 22.1812 8.04194C22.1812 8.04194 22.1236 8.05622 22.0948 8.06336C19.7126 8.6133 17.4095 9.47035 15.2432 10.5988C15.0993 10.6702 14.9626 10.7559 14.8258 10.8345C14.6603 10.9273 14.4876 11.0202 14.322 11.113C14.1997 11.1844 14.0701 11.2487 13.9478 11.3201C13.9406 11.3201 13.9334 11.3273 13.919 11.3344C13.8902 11.3559 13.8542 11.3701 13.8182 11.3916L14.1133 11.8844L22.577 25.8328C22.7425 25.7328 22.9081 25.6471 23.0808 25.5543C23.2535 25.4614 23.4263 25.3757 23.599 25.2972C24.8081 24.7258 26.0963 24.3687 27.399 24.2401C27.5933 24.2187 27.7804 24.2044 27.9748 24.1973C28.1691 24.1901 28.3562 24.1758 28.5505 24.1758V7.31345C28.3562 7.31345 28.1691 7.32059 27.9748 7.32773H27.982Z" fill="#6BA43A"/>
<path d="M57.0867 34.2676C57.0795 34.1176 57.0723 33.9676 57.0579 33.8105C57.0579 33.7319 57.0507 33.6605 57.0435 33.5819C57.0291 33.4034 57.0147 33.2248 57.0003 33.0463C57.0003 33.0034 56.9931 32.9534 56.9859 32.9106C56.9644 32.7106 56.9428 32.5106 56.9212 32.3178C56.9212 32.3035 56.9212 32.2892 56.9212 32.2678C56.9212 32.2607 56.9212 32.2535 56.9212 32.2464C56.8924 32.0321 56.8636 31.8179 56.8348 31.6036C56.8348 31.6036 56.8348 31.5893 56.8348 31.5822C56.6405 30.2395 56.3454 28.911 55.9568 27.5969C55.9568 27.5898 55.9568 27.5826 55.9496 27.5683C55.8848 27.3683 55.8272 27.1612 55.7625 26.9613C55.7553 26.9327 55.7481 26.9113 55.7337 26.8827C55.6761 26.697 55.6113 26.5184 55.5465 26.3399C55.5321 26.2899 55.5106 26.2399 55.4962 26.1899C55.4386 26.0328 55.381 25.8757 55.3234 25.7185C55.2946 25.6471 55.2659 25.5686 55.2371 25.4971C55.1867 25.3686 55.1363 25.24 55.0859 25.1115C55.0428 25.0115 54.9996 24.9043 54.9636 24.8043C54.9204 24.7044 54.8772 24.6044 54.834 24.5044C54.7765 24.3758 54.7189 24.2473 54.6613 24.1187C54.6325 24.0473 54.5965 23.9759 54.5606 23.9045C54.4886 23.7545 54.4166 23.5973 54.3446 23.4474C54.3231 23.4045 54.3015 23.3545 54.2799 23.3117C54.1935 23.1402 54.1071 22.9688 54.0208 22.7903C54.0064 22.7689 53.9992 22.7403 53.9848 22.7189C53.884 22.5332 53.7905 22.3403 53.6825 22.1546C53.6825 22.1546 53.6825 22.1404 53.6681 22.1332C53.1715 21.2333 52.6318 20.3548 52.0416 19.5192L39.5116 31.9536C39.7995 32.7892 39.9794 33.6462 40.073 34.5104H57.0939C57.0939 34.4247 57.0939 34.3461 57.0867 34.2604V34.2676Z" fill="#4D5A31"/>
<path d="M40.1449 35.6603C40.1449 35.8531 40.1305 36.0388 40.1161 36.2316C40.1089 36.4245 40.1017 36.6102 40.0873 36.803C39.8714 38.9956 39.015 41.1382 37.5252 42.938C37.4029 43.0809 37.2661 43.2237 37.1366 43.3594C37.007 43.5023 36.8847 43.6451 36.7479 43.7808L48.7525 55.6938C48.8893 55.5581 49.0188 55.4152 49.1484 55.2795C49.2779 55.1438 49.4147 55.0081 49.5442 54.8653C50.4294 53.9082 51.2427 52.9084 51.9768 51.8728C52.0056 51.8299 52.0344 51.7942 52.0632 51.7513C52.1495 51.6228 52.2359 51.4942 52.3295 51.3657C52.4086 51.2514 52.4806 51.1371 52.5598 51.0229C52.5957 50.9657 52.6317 50.9086 52.6677 50.8514C55.4242 46.5591 56.8924 41.6953 57.0939 36.7887C57.1011 36.5959 57.1083 36.4102 57.1083 36.2174C57.1083 36.0245 57.1155 35.8388 57.1155 35.646H40.1377L40.1449 35.6603Z" fill="#6BA43A"/>
<path d="M62.1606 2.314C59.0515 -0.771373 54.0208 -0.771373 50.9117 2.314C48.4359 4.77087 47.9393 8.44903 49.4147 11.3987L32.0915 28.5896C29.1191 27.1255 25.4126 27.6183 22.9369 30.0752C19.8278 33.1606 19.8278 38.1529 22.9369 41.2382C26.046 44.3236 31.0767 44.3165 34.1858 41.2382C36.6616 38.7814 37.1582 35.1032 35.6828 32.1535L53.006 14.9626C55.9784 16.4267 59.6848 15.9339 62.1606 13.477C65.2697 10.3917 65.2697 5.39937 62.1606 2.314Z" fill="white"/>
<path d="M65.8599 29.5538C65.8599 21.1048 72.0853 15.0555 80.6353 15.0555C89.1854 15.0555 95.3748 21.1048 95.3748 29.5538C95.3748 38.0029 89.1494 44.0522 80.6353 44.0522C72.1213 44.0522 65.8599 38.0029 65.8599 29.5538ZM89.1854 29.5538C89.1854 24.3044 85.8388 20.3477 80.6353 20.3477C75.4319 20.3477 72.0421 24.2973 72.0421 29.5538C72.0421 34.8104 75.3887 38.76 80.6353 38.76C85.882 38.76 89.1854 34.7675 89.1854 29.5538Z" fill="white"/>
<path d="M98.5415 43.5523V15.5197H111.755C117.894 15.5197 121.241 19.6407 121.241 24.5544C121.241 29.4681 117.851 33.5462 111.755 33.5462H104.558V43.5451H98.5415V43.5523ZM115.102 24.5544C115.102 22.2047 113.281 20.7691 110.906 20.7691H104.551V28.2897H110.906C113.281 28.2897 115.102 26.8613 115.102 24.5472V24.5544Z" fill="white"/>
<path d="M123.947 43.5523V15.5197H143.933V20.7691H129.956V26.6542H143.631V31.9036H129.956V38.2886H143.933V43.538H123.947V43.5523Z" fill="white"/>
<path d="M167.057 43.5523L153.591 25.2757V43.5523H147.575V15.5197H153.757L166.841 33.1249V15.5197H172.858V43.5451H167.057V43.5523Z" fill="white"/>
<path d="M197.203 43.5523L195.425 38.8029H183.312L181.535 43.5523H174.719L185.601 15.5269H193.136L204.018 43.5523H197.203ZM189.365 21.4905L184.961 33.5534H193.77L189.365 21.4905Z" fill="white"/>
<path d="M205.586 43.5523V15.5197H218.8C224.939 15.5197 228.286 19.6407 228.286 24.5544C228.286 29.4681 224.896 33.5462 218.8 33.5462H211.603V43.5451H205.594L205.586 43.5523ZM222.14 24.5544C222.14 22.2047 220.319 20.7691 217.944 20.7691H211.589V28.2897H217.944C220.319 28.2897 222.14 26.8613 222.14 24.5472V24.5544Z" fill="white"/>
<path d="M230.985 43.5523V15.5197H237.002V43.5451H230.985V43.5523Z" fill="white"/>
<path d="M230.016 53.1337H236.731V54.7088H231.969V56.7856H236.327V58.3733H231.969V60.5073H237.002V62.0823H230.016V53.1337Z" fill="white"/>
<path d="M223.388 62.209C222.382 62.209 221.525 62.0121 220.819 61.6183C220.112 61.2246 219.578 60.6784 219.216 59.9798C218.858 59.2812 218.68 58.4767 218.68 57.5664C218.68 56.6391 218.865 55.8326 219.236 55.1466C219.607 54.4607 220.139 53.9315 220.832 53.5589C221.53 53.1863 222.353 53 223.302 53C224.287 53 225.11 53.1905 225.772 53.5716C226.435 53.9527 226.944 54.4777 227.302 55.1466L225.68 55.9024C225.472 55.5256 225.17 55.2144 224.772 54.9688C224.379 54.7232 223.903 54.6005 223.342 54.6005C222.808 54.6005 222.335 54.7232 221.925 54.9688C221.518 55.2144 221.203 55.5616 220.978 56.0104C220.757 56.455 220.647 56.9736 220.647 57.5664C220.647 58.1676 220.75 58.6969 220.958 59.1541C221.165 59.6114 221.474 59.9671 221.885 60.2211C222.3 60.4752 222.801 60.6022 223.388 60.6022C224.496 60.6022 225.322 60.0941 225.865 59.0779L227.468 59.8718C227.141 60.5577 226.642 61.1187 225.971 61.5548C225.304 61.9909 224.443 62.209 223.388 62.209Z" fill="white"/>
<path d="M207.867 53.1337H210.231L214.092 59.9738C214.088 59.8806 214.077 59.6732 214.059 59.3514C214.046 59.0254 214.039 58.6866 214.039 58.3352V53.1337H215.841V62.0823H213.417L209.629 55.3185C209.633 55.4116 209.642 55.6127 209.655 55.9218C209.668 56.2309 209.675 56.5252 209.675 56.8046V62.0823H207.867V53.1337Z" fill="white"/>
<path d="M198.086 53.1337H204.801V54.7088H200.04V56.7856H204.397V58.3733H200.04V60.5073H205.073V62.0823H198.086V53.1337Z" fill="white"/>
<path d="M187.422 53.1337H191.601C192.364 53.1337 193.005 53.2438 193.521 53.464C194.038 53.6842 194.424 53.9975 194.68 54.4039C194.941 54.8104 195.071 55.2973 195.071 55.8647C195.071 56.3135 194.982 56.7157 194.806 57.0714C194.634 57.427 194.393 57.7234 194.084 57.9605C193.775 58.1934 193.422 58.3585 193.024 58.4559L195.548 62.0823H193.349L191.183 58.8179H189.375V62.0823H187.422V53.1337ZM191.435 57.2301C192 57.2301 192.42 57.1158 192.693 56.8872C192.967 56.6543 193.104 56.3389 193.104 55.9409C193.104 55.5302 192.958 55.2253 192.667 55.0263C192.375 54.8231 191.952 54.7215 191.395 54.7215H189.375V57.2301H191.435Z" fill="white"/>
<path d="M177.648 53.1337H184.364V54.7088H179.602V56.7856H183.96V58.3733H179.602V60.5073H184.635V62.0823H177.648V53.1337Z" fill="white"/>
<path d="M168.406 53.1337H174.876V54.7088H170.36V57.0333H174.731V58.621H170.36V62.0823H168.406V53.1337Z" fill="white"/>
<path d="M157.25 53.1337H159.614L163.475 59.9738C163.471 59.8806 163.46 59.6732 163.442 59.3514C163.429 59.0254 163.422 58.6866 163.422 58.3352V53.1337H165.223V62.0823H162.8L159.012 55.3185C159.016 55.4116 159.025 55.6127 159.038 55.9218C159.051 56.2309 159.058 56.5252 159.058 56.8046V62.0823H157.25V53.1337Z" fill="white"/>
<path d="M149.68 62.209C148.704 62.209 147.863 62.0121 147.157 61.6183C146.45 61.2203 145.912 60.672 145.541 59.9734C145.17 59.2706 144.984 58.4682 144.984 57.5664C144.984 56.6391 145.174 55.8326 145.554 55.1466C145.934 54.4607 146.479 53.9315 147.19 53.5589C147.9 53.1863 148.735 53 149.693 53C150.651 53 151.485 53.1884 152.196 53.5652C152.907 53.9378 153.452 54.4692 153.832 55.1593C154.216 55.8453 154.408 56.6476 154.408 57.5664C154.408 58.4894 154.209 59.3023 153.812 60.0052C153.419 60.7038 152.865 61.2457 152.15 61.631C151.435 62.0163 150.611 62.209 149.68 62.209ZM149.68 60.6022C150.258 60.6022 150.753 60.473 151.163 60.2148C151.574 59.9565 151.885 59.5987 152.097 59.1414C152.309 58.6842 152.415 58.1591 152.415 57.5664C152.415 56.9736 152.302 56.455 152.077 56.0104C151.852 55.5616 151.532 55.2144 151.117 54.9688C150.706 54.7232 150.232 54.6005 149.693 54.6005C149.137 54.6005 148.651 54.7232 148.236 54.9688C147.825 55.2144 147.508 55.5616 147.282 56.0104C147.062 56.455 146.951 56.9736 146.951 57.5664C146.951 58.1549 147.064 58.6799 147.289 59.1414C147.519 59.6029 147.839 59.9628 148.249 60.2211C148.664 60.4752 149.141 60.6022 149.68 60.6022Z" fill="white"/>
<path d="M138.709 62.209C137.702 62.209 136.845 62.0121 136.139 61.6183C135.433 61.2246 134.898 60.6784 134.536 59.9798C134.179 59.2812 134 58.4767 134 57.5664C134 56.6391 134.185 55.8326 134.556 55.1466C134.927 54.4607 135.459 53.9315 136.152 53.5589C136.85 53.1863 137.673 53 138.622 53C139.607 53 140.43 53.1905 141.093 53.5716C141.755 53.9527 142.265 54.4777 142.622 55.1466L141 55.9024C140.792 55.5256 140.49 55.2144 140.093 54.9688C139.7 54.7232 139.223 54.6005 138.662 54.6005C138.128 54.6005 137.656 54.7232 137.245 54.9688C136.839 55.2144 136.523 55.5616 136.298 56.0104C136.077 56.455 135.967 56.9736 135.967 57.5664C135.967 58.1676 136.071 58.6969 136.278 59.1541C136.486 59.6114 136.795 59.9671 137.205 60.2211C137.62 60.4752 138.121 60.6022 138.709 60.6022C139.817 60.6022 140.642 60.0941 141.185 59.0779L142.788 59.8718C142.461 60.5577 141.962 61.1187 141.291 61.5548C140.625 61.9909 139.764 62.209 138.709 62.209Z" fill="white"/>
</g>
<defs>
<clipPath id="clip0_1_295">
<rect width="243" height="64" fill="white"/>
</clipPath>
</defs>
</svg>
