<svg width="159" height="42" viewBox="0 0 159 42" fill="none" xmlns="http://www.w3.org/2000/svg">
<g clip-path="url(#clip0_1071_2609)">
<path d="M11.1514 24.152H0.0189209C0.0189209 24.2082 0.0189209 24.2598 0.0236301 24.316C0.0236301 24.4191 0.0377575 24.5222 0.0424667 24.63C0.0424667 24.6769 0.0471758 24.7191 0.051885 24.766C0.0613033 24.8878 0.0707216 25.005 0.0801399 25.1269C0.0801399 25.155 0.0848491 25.1831 0.0895583 25.2065C0.103686 25.3425 0.117813 25.4737 0.131941 25.6049C0.131941 25.619 0.131941 25.633 0.131941 25.6424C0.150777 25.7877 0.169614 25.9283 0.188451 26.0736C0.188451 26.0736 0.188451 26.0736 0.188451 26.0783C0.315598 26.9595 0.508673 27.8359 0.762968 28.6983V28.7077C0.80535 28.8436 0.843024 28.9796 0.890115 29.1108C0.890115 29.1202 0.894824 29.1248 0.899533 29.1342C0.904243 29.1436 0.904243 29.1483 0.908952 29.1577C0.946625 29.2795 0.989007 29.4014 1.03139 29.5186C1.04081 29.5467 1.05494 29.5795 1.06435 29.6123C1.10203 29.7154 1.1397 29.8232 1.17737 29.9263C1.19621 29.9732 1.21505 30.0201 1.22917 30.0669C1.26214 30.1513 1.2951 30.2403 1.33278 30.3247C1.36103 30.3903 1.38458 30.4559 1.41283 30.5216C1.44109 30.5872 1.46934 30.6575 1.4976 30.7231C1.53527 30.8075 1.56823 30.8872 1.60591 30.9715C1.62945 31.0184 1.64829 31.0699 1.67184 31.1168C1.71893 31.2152 1.76131 31.3137 1.8084 31.4121C1.82253 31.4449 1.83666 31.473 1.85549 31.5058C1.912 31.6183 1.9638 31.7308 2.02031 31.8433C2.02973 31.862 2.03915 31.8761 2.04857 31.8949C2.1145 32.0167 2.17572 32.1386 2.24164 32.2604C2.24164 32.2651 2.24635 32.2698 2.25106 32.2745C2.26519 32.2979 2.27932 32.3261 2.29344 32.3495L11.8012 26.6454L11.8342 26.622C11.4575 25.8346 11.222 24.9956 11.1372 24.1473L11.1514 24.152Z" fill="#93D500"/>
<path d="M0.541626 29.2326L0.546335 29.242L0.904231 29.1295L0.541626 29.2326Z" fill="#93D500"/>
<path d="M13.8874 29.2374L13.8591 29.2655L6.01367 37.074C6.05605 37.1115 6.09373 37.149 6.13611 37.1865C6.20675 37.2521 6.28209 37.3177 6.35744 37.3833C6.39511 37.4161 6.43279 37.4536 6.47046 37.4818C6.55993 37.5567 6.64941 37.6317 6.73888 37.7067C6.76243 37.7255 6.78597 37.7489 6.80952 37.7677C6.90841 37.852 7.01201 37.9317 7.11561 38.0114C7.12974 38.0208 7.14387 38.0301 7.15329 38.0442C7.26631 38.1332 7.37462 38.2176 7.48764 38.302C7.49235 38.302 7.49706 38.3067 7.50177 38.3114C7.97268 38.6629 8.46243 38.991 8.97102 39.3003C8.98986 39.3097 9.00399 39.3191 9.02282 39.3331C9.11701 39.3894 9.2159 39.4456 9.31008 39.5018C9.3713 39.5347 9.42781 39.5675 9.48903 39.6003C9.54554 39.6331 9.60205 39.6612 9.65856 39.694C9.76216 39.7503 9.86105 39.8065 9.96465 39.8581C9.97878 39.8674 9.99291 39.8721 10.007 39.8815C10.2943 40.0315 10.5816 40.1674 10.8735 40.2986L11.1514 39.6284L15.0976 30.0951L15.1118 30.0576C14.6832 29.8279 14.2688 29.5561 13.8827 29.2421L13.8874 29.2374Z" fill="#4D4D4D"/>
<path d="M13.0727 28.4593C12.988 28.3656 12.9079 28.2671 12.8279 28.1734C12.7572 28.089 12.6913 28 12.6254 27.9109C12.55 27.8078 12.4747 27.7094 12.4087 27.6063C12.3381 27.5032 12.2722 27.3953 12.2062 27.2922L2.68433 33.001C2.83031 33.2447 2.981 33.479 3.13641 33.7087C3.14111 33.7181 3.14582 33.7275 3.15053 33.7321C3.15053 33.7321 3.15053 33.7368 3.15524 33.7415C3.15995 33.7509 3.16466 33.7556 3.16937 33.765C3.1835 33.7837 3.19292 33.8024 3.20704 33.8212C3.37186 34.0649 3.54139 34.304 3.71563 34.5383C3.71563 34.543 3.72505 34.5477 3.72505 34.5524C3.72505 34.5571 3.73447 34.5617 3.73447 34.5664C3.80981 34.6649 3.88516 34.768 3.96522 34.8664C3.97464 34.8805 3.98405 34.8945 3.99818 34.9039C4.07824 35.007 4.163 35.1101 4.24306 35.2085C4.26189 35.232 4.28073 35.2554 4.30428 35.2788C4.37962 35.3679 4.45497 35.4569 4.53032 35.546C4.56328 35.5835 4.59624 35.621 4.62921 35.6585C4.69514 35.7335 4.76106 35.8085 4.82699 35.8788C4.86467 35.921 4.90234 35.9585 4.94001 36.0006C4.95885 36.0194 4.97298 36.0381 4.99181 36.0569C5.03891 36.1084 5.09071 36.16 5.1378 36.2162C5.15663 36.235 5.18018 36.2584 5.19902 36.2772C5.28378 36.3662 5.37326 36.4553 5.46273 36.5443L13.3176 28.7265C13.2281 28.6374 13.1434 28.5437 13.0586 28.4546L13.0727 28.4593Z" fill="#6BA43A"/>
<path d="M23.4847 29.2327C23.3999 29.303 23.3104 29.3686 23.2209 29.4342L23.2398 29.467L28.9661 38.93C29.2298 38.7566 29.4935 38.5785 29.7478 38.391C30.3035 37.9832 30.8404 37.5427 31.3537 37.0693L23.5082 29.2608L23.4752 29.228L23.4847 29.2327Z" fill="#4D4D4D"/>
<path d="M28.2456 39.38C28.2456 39.38 28.255 39.3753 28.2597 39.3706C28.2597 39.3706 28.2503 39.3706 28.2456 39.3753V39.38Z" fill="#93D500"/>
<path d="M28.255 39.3753C28.2786 39.3612 28.3068 39.3472 28.3304 39.3331C28.3068 39.3472 28.2833 39.3612 28.255 39.3753Z" fill="#93D500"/>
<path d="M28.2408 39.3851L28.2459 39.38L28.2408 39.3851Z" fill="#93D500"/>
<path d="M28.2362 39.3846L28.222 39.3612L28.2362 39.3846Z" fill="#93D500"/>
<path d="M28.2456 39.38C28.2456 39.38 28.255 39.38 28.2597 39.3753C28.2597 39.3753 28.2503 39.3753 28.2456 39.38Z" fill="#93D500"/>
<path d="M28.2314 39.3898L28.2365 39.3846L28.2314 39.3898Z" fill="#93D500"/>
<path d="M28.2411 39.3849H28.2362L28.2461 39.38L28.2411 39.3849Z" fill="#93D500"/>
<path d="M28.1373 39.0097L27.9442 38.691L22.5993 29.8607C22.491 29.9263 22.3827 29.9826 22.2696 30.0435C22.1566 30.1044 22.0436 30.1607 21.9306 30.2122C20.904 30.695 19.7926 30.9434 18.6766 30.9434C17.9466 30.9434 17.2167 30.8403 16.515 30.6294C16.3926 30.5919 16.2796 30.545 16.1572 30.5028C16.0394 30.4607 15.917 30.4232 15.7993 30.3763L11.8577 39.9049L11.7023 40.2799L11.5704 40.5986C11.5704 40.5986 11.5893 40.608 11.6034 40.6126C11.6128 40.6126 11.6269 40.622 11.6364 40.6267C11.6364 40.6267 11.6411 40.6267 11.6458 40.6267C11.74 40.6642 11.8341 40.697 11.9283 40.7345C12.0461 40.7814 12.1638 40.8236 12.2815 40.8704C12.3427 40.8939 12.3992 40.9173 12.4605 40.9407C13.6943 41.3766 14.9752 41.6766 16.2749 41.85C16.3267 41.8547 16.3738 41.8641 16.4256 41.8688C16.4774 41.8734 16.5339 41.8781 16.5857 41.8875C16.6846 41.8969 16.7835 41.9109 16.8871 41.9203C16.9106 41.9203 16.9389 41.9203 16.9624 41.925C17.0849 41.9344 17.2073 41.9484 17.3297 41.9578C17.3721 41.9578 17.4145 41.9625 17.4569 41.9672C17.5652 41.9766 17.6735 41.9812 17.7818 41.9859C17.8477 41.9859 17.9137 41.9906 17.9796 41.9953C18.0644 41.9953 18.1491 42 18.2386 42.0047C18.361 42.0047 18.4882 42.0047 18.6106 42.0047C18.6389 42.0047 18.6671 42.0047 18.7001 42.0047C19.7361 42.0047 20.7768 41.9203 21.8034 41.7469C21.8034 41.7469 21.8364 41.7422 21.8552 41.7375C21.9635 41.7188 22.0719 41.7 22.1802 41.6766C22.2414 41.6625 22.3026 41.6531 22.3638 41.6391C22.425 41.625 22.491 41.611 22.5522 41.6016C22.6558 41.5782 22.7641 41.5547 22.8677 41.5313C22.8865 41.5313 22.9054 41.5219 22.9242 41.5172C24.4829 41.1563 25.9899 40.5939 27.4073 39.8534C27.5015 39.8065 27.591 39.7502 27.6805 39.6987C27.7888 39.6378 27.9018 39.5768 28.0101 39.5159C28.0854 39.4737 28.1608 39.4315 28.2361 39.3893C28.2361 39.3893 28.2456 39.3847 28.2503 39.38C28.2738 39.3659 28.2974 39.3518 28.3256 39.3378L28.1325 39.0144L28.1373 39.0097Z" fill="#93D500"/>
<path d="M13.892 17.5668C13.9768 17.4965 14.0663 17.4309 14.1557 17.3653L14.1369 17.3325L8.41056 7.86945C8.14685 8.04286 7.88314 8.22097 7.62413 8.40845C7.06845 8.81621 6.53632 9.25679 6.01831 9.73018L13.8638 17.5387L13.8967 17.5715L13.892 17.5668Z" fill="#93D500"/>
<path d="M5.47209 10.2504C5.38262 10.3395 5.29785 10.4332 5.21309 10.5223C5.12832 10.6113 5.03885 10.7004 4.95409 10.7941C4.37486 11.4175 3.84272 12.0737 3.3671 12.7533C3.34355 12.7861 3.32001 12.8189 3.29646 12.8517C3.24466 12.9314 3.18815 13.0064 3.13635 13.086C3.07984 13.1657 3.02804 13.2501 2.97624 13.3345C2.9574 13.3626 2.93857 13.3954 2.91973 13.4235C1.11141 16.2357 0.146035 19.4275 0.0188882 22.6522C0.0141791 22.7787 0.0094699 22.9006 0.0094699 23.0271C0.0094699 23.1537 0.00476074 23.2755 0.00476074 23.4021H11.1137C11.1137 23.2755 11.1278 23.1537 11.1325 23.0271C11.1372 22.9006 11.1419 22.7787 11.1513 22.6522C11.2973 21.2133 11.853 19.8072 12.8278 18.6261C12.9079 18.5323 12.9973 18.4386 13.0821 18.3495C13.1669 18.2558 13.2469 18.162 13.3364 18.073L5.47209 10.2504Z" fill="#4D4D4D"/>
<path d="M28.3963 7.50386C28.3963 7.50386 28.3633 7.48511 28.3492 7.47574C28.2503 7.41481 28.1514 7.35857 28.0525 7.30232C27.996 7.26951 27.9395 7.2367 27.8783 7.2039C27.8218 7.17109 27.7605 7.13828 27.704 7.10547C27.6051 7.04923 27.5015 6.99767 27.4026 6.94143C27.3885 6.93205 27.3697 6.92268 27.3555 6.91799C26.7057 6.58053 26.037 6.28056 25.3542 6.02278C25.3353 6.0134 25.3165 6.00872 25.3024 6.00403C25.1517 5.94779 25.0057 5.89154 24.855 5.83999C23.64 5.41816 22.3874 5.12288 21.1112 4.95415C21.0594 4.94477 21.0076 4.94009 20.9558 4.9354C20.904 4.93071 20.8522 4.92602 20.8004 4.91665C20.7015 4.90728 20.5979 4.89322 20.499 4.88384C20.4708 4.88384 20.4425 4.88384 20.4142 4.87447C20.2965 4.86509 20.1741 4.85103 20.0564 4.84635C20.0093 4.84635 19.9622 4.84166 19.9151 4.83697C19.8115 4.83229 19.7079 4.82291 19.6043 4.81822C19.5478 4.81822 19.496 4.81822 19.4395 4.81354V15.8561V15.8982C20.0093 15.9592 20.5791 16.0763 21.1253 16.2638L29.3193 8.10848C29.0132 7.89757 28.7071 7.69603 28.3916 7.50386H28.3963Z" fill="#4D4D4D"/>
<path d="M18.3092 4.80881C18.1821 4.80881 18.0597 4.80881 17.9325 4.81819C17.1461 4.851 16.3644 4.93067 15.5826 5.05722C15.5638 5.05722 15.5497 5.06191 15.5308 5.0666C15.4225 5.08534 15.3142 5.10409 15.2059 5.12753C15.1447 5.1369 15.0835 5.15096 15.0223 5.16502C14.9563 5.17908 14.8951 5.19314 14.8292 5.20721C14.7256 5.23064 14.6173 5.25408 14.5137 5.27751C14.5137 5.27751 14.476 5.28688 14.4572 5.29157C12.8984 5.65247 11.3915 6.21491 9.97404 6.95545C9.87986 7.00232 9.79038 7.05856 9.70091 7.11012C9.5926 7.17105 9.47958 7.23198 9.37127 7.29291C9.29121 7.33978 9.20645 7.38196 9.12639 7.42883C9.12168 7.42883 9.11697 7.43352 9.10755 7.43821C9.08872 7.45227 9.06517 7.46164 9.04163 7.4757L9.2347 7.7991L14.7727 16.9528C14.881 16.8872 14.9893 16.8309 15.1023 16.77C15.2153 16.709 15.3284 16.6528 15.4414 16.6012C16.2325 16.2263 17.0754 15.9919 17.9278 15.9076C18.055 15.8935 18.1774 15.8841 18.3045 15.8795C18.4317 15.8748 18.5541 15.8654 18.6813 15.8654V4.79944C18.5541 4.79944 18.4317 4.80413 18.3045 4.80881H18.3092Z" fill="#6BA43A"/>
<path d="M37.353 22.4881C37.3483 22.3897 37.3436 22.2913 37.3342 22.1881C37.3342 22.1366 37.3295 22.0897 37.3248 22.0382C37.3154 21.921 37.3059 21.8038 37.2965 21.6866C37.2965 21.6585 37.2918 21.6257 37.2871 21.5976C37.273 21.4664 37.2588 21.3351 37.2447 21.2086C37.2447 21.1992 37.2447 21.1898 37.2447 21.1758C37.2447 21.1711 37.2447 21.1664 37.2447 21.1617C37.2259 21.0211 37.207 20.8805 37.1882 20.7399C37.1882 20.7399 37.1882 20.7305 37.1882 20.7258C37.0611 19.8447 36.868 18.9729 36.6137 18.1105C36.6137 18.1058 36.6137 18.1011 36.609 18.0917C36.5666 17.9605 36.5289 17.8246 36.4865 17.6933C36.4818 17.6746 36.4771 17.6605 36.4677 17.6418C36.43 17.5199 36.3877 17.4027 36.3453 17.2856C36.3359 17.2528 36.3217 17.22 36.3123 17.1871C36.2746 17.084 36.237 16.9809 36.1993 16.8778C36.1805 16.8309 36.1616 16.7794 36.1428 16.7325C36.1098 16.6481 36.0769 16.5638 36.0439 16.4794C36.0156 16.4138 35.9874 16.3435 35.9638 16.2779C35.9356 16.2123 35.9073 16.1466 35.8791 16.081C35.8414 15.9967 35.8037 15.9123 35.766 15.8279C35.7472 15.7811 35.7237 15.7342 35.7001 15.6873C35.653 15.5889 35.6059 15.4858 35.5588 15.3873C35.5447 15.3592 35.5306 15.3264 35.5165 15.2983C35.46 15.1858 35.4034 15.0733 35.3469 14.9561C35.3375 14.9421 35.3328 14.9233 35.3234 14.9093C35.2575 14.7874 35.1962 14.6609 35.1256 14.539C35.1256 14.539 35.1256 14.5296 35.1162 14.5249C34.7913 13.9344 34.4381 13.3579 34.0519 12.8095L25.8533 20.9695C26.0416 21.5179 26.1594 22.0803 26.2206 22.6475H37.3577C37.3577 22.5912 37.3577 22.5397 37.353 22.4834V22.4881Z" fill="#4D4D4D"/>
<path d="M26.2678 23.4021C26.2678 23.5286 26.2583 23.6505 26.2489 23.777C26.2442 23.9036 26.2395 24.0254 26.2301 24.152C26.0888 25.5909 25.5284 26.997 24.5536 28.1781C24.4736 28.2718 24.3841 28.3656 24.2993 28.4546C24.2146 28.5484 24.1345 28.6421 24.045 28.7312L31.8999 36.549C31.9894 36.46 32.0742 36.3663 32.1589 36.2772C32.2437 36.1881 32.3332 36.0991 32.4179 36.0054C32.9972 35.3773 33.5293 34.7211 34.0096 34.0415C34.0285 34.0134 34.0473 33.99 34.0661 33.9618C34.1226 33.8775 34.1792 33.7931 34.2404 33.7087C34.2922 33.6337 34.3393 33.5588 34.3911 33.4838C34.4146 33.4463 34.4382 33.4088 34.4617 33.3713C36.2653 30.5544 37.226 27.3626 37.3578 24.1426C37.3625 24.0161 37.3672 23.8942 37.3672 23.7677C37.3672 23.6411 37.372 23.5192 37.372 23.3927H26.2631L26.2678 23.4021Z" fill="#6BA43A"/>
<path d="M40.6731 1.51858C38.6387 -0.506193 35.347 -0.506193 33.3127 1.51858C31.6927 3.1309 31.3678 5.54469 32.3332 7.48042L20.9982 18.762C19.0534 17.8011 16.6281 18.1245 15.0082 19.7369C12.9738 21.7616 12.9738 25.0378 15.0082 27.0626C17.0425 29.0874 20.3342 29.0827 22.3686 27.0626C23.9886 25.4503 24.3135 23.0365 23.3481 21.1008L34.683 9.81922C36.6279 10.78 39.0531 10.4566 40.6731 8.84433C42.7075 6.81955 42.7075 3.54335 40.6731 1.51858Z" fill="white"/>
<path d="M43.0935 19.3947C43.0935 13.85 47.1669 9.88013 52.7614 9.88013C58.3559 9.88013 62.4058 13.85 62.4058 19.3947C62.4058 24.9394 58.3323 28.9093 52.7614 28.9093C47.1905 28.9093 43.0935 24.9394 43.0935 19.3947ZM58.3559 19.3947C58.3559 15.9498 56.1661 13.3532 52.7614 13.3532C49.3567 13.3532 47.1387 15.9451 47.1387 19.3947C47.1387 22.8443 49.3284 25.4362 52.7614 25.4362C56.1944 25.4362 58.3559 22.8162 58.3559 19.3947Z" fill="white"/>
<path d="M64.4778 28.5811V10.1848H73.1238C77.1407 10.1848 79.3305 12.8891 79.3305 16.1138C79.3305 19.3384 77.1125 22.0147 73.1238 22.0147H68.4146V28.5765H64.4778V28.5811ZM75.3136 16.1138C75.3136 14.5718 74.1221 13.6297 72.5681 13.6297H68.4099V18.5651H72.5681C74.1221 18.5651 75.3136 17.6277 75.3136 16.1091V16.1138Z" fill="white"/>
<path d="M81.1011 28.5811V10.1848H94.1784V13.6297H85.0332V17.4918H93.9806V20.9367H85.0332V25.1268H94.1784V28.5718H81.1011V28.5811Z" fill="white"/>
<path d="M109.309 28.5811L100.498 16.5872V28.5811H96.5613V10.1848H100.606L109.168 21.7382V10.1848H113.105V28.5765H109.309V28.5811Z" fill="white"/>
<path d="M129.034 28.5812L127.871 25.4644H119.945L118.782 28.5812H114.323L121.443 10.1895H126.373L133.493 28.5812H129.034ZM123.906 14.1031L121.024 22.0194H126.788L123.906 14.1031Z" fill="white"/>
<path d="M134.52 28.5811V10.1848H143.166C147.182 10.1848 149.372 12.8891 149.372 16.1138C149.372 19.3384 147.154 22.0147 143.166 22.0147H138.456V28.5765H134.524L134.52 28.5811ZM145.351 16.1138C145.351 14.5718 144.159 13.6297 142.605 13.6297H138.447V18.5651H142.605C144.159 18.5651 145.351 17.6277 145.351 16.1091V16.1138Z" fill="white"/>
<path d="M151.138 28.5811V10.1848H155.075V28.5765H151.138V28.5811Z" fill="white"/>
<path d="M155.034 40.0313H150.839V34.1619H154.864V35.07H151.886V36.5988H154.611V37.5069H151.886V39.1232H155.034V40.0313Z" fill="#6BA43A"/>
<path d="M144.171 40.0313L142.012 34.1619H143.108L144.412 38.0817C144.482 38.29 144.548 38.5011 144.612 38.7149C144.675 38.926 144.717 39.0662 144.736 39.1357C144.739 39.1273 144.743 39.112 144.749 39.0898C144.757 39.0648 144.767 39.0343 144.778 38.9982C144.961 38.4011 145.053 38.0956 145.056 38.0817L146.352 34.1619H147.444L145.293 40.0313H144.171Z" fill="#6BA43A"/>
<path d="M138.579 40.0313H137.529V34.1619H138.579V40.0313Z" fill="#6BA43A"/>
<path d="M132.19 40.0313H131.143V35.07H129.324V34.1619H134.013V35.07H132.19V40.0313Z" fill="#6BA43A"/>
<path d="M127.014 40.0313H125.963L125.46 38.5441H123.043L122.536 40.0313H121.477L123.641 34.1619H124.875L127.014 40.0313ZM123.321 37.7193H125.182L124.551 35.8531C124.382 35.3588 124.282 35.0589 124.252 34.9533C124.246 34.9756 124.228 35.0311 124.198 35.12C124.17 35.2061 124.145 35.2852 124.123 35.3574C124.067 35.5157 124.012 35.6823 123.957 35.8573L123.321 37.7193Z" fill="#6BA43A"/>
<path d="M118.012 40.0313H116.961V34.1619H118.012V40.0313Z" fill="#6BA43A"/>
<path d="M111.622 40.0313H110.575V35.07H108.756V34.1619H113.445V35.07H111.622V40.0313Z" fill="#6BA43A"/>
<path d="M105.241 40.0313H104.19V34.1619H105.241V40.0313Z" fill="#6BA43A"/>
<path d="M95.3544 40.0313V34.1619H96.6087L99.2544 38.8566C99.235 38.4566 99.2253 38.0887 99.2253 37.7527V34.1619H100.185V40.0313H98.8848L96.2889 35.3824C96.3027 35.7906 96.3097 36.1267 96.3097 36.3905V40.0313H95.3544Z" fill="#6BA43A"/>
<path d="M91.349 40.0313H90.2982V34.1619H91.349V40.0313Z" fill="#6BA43A"/>
</g>
<defs>
<clipPath id="clip0_1071_2609">
<rect width="159" height="42" fill="white"/>
</clipPath>
</defs>
</svg>
